<?xml version="1.0" encoding="UTF-8" standalone="no"?>
<svg
   xmlns:dc="http://purl.org/dc/elements/1.1/"
   xmlns:cc="http://creativecommons.org/ns#"
   xmlns:rdf="http://www.w3.org/1999/02/22-rdf-syntax-ns#"
   xmlns:svg="http://www.w3.org/2000/svg"
   xmlns="http://www.w3.org/2000/svg"
   xmlns:sodipodi="http://sodipodi.sourceforge.net/DTD/sodipodi-0.dtd"
   xmlns:inkscape="http://www.inkscape.org/namespaces/inkscape"
   id="Camada_1"
   data-name="Camada 1"
   viewBox="0 0 228.49 39.92"
   version="1.1"
   sodipodi:docname="logo.svg"
   inkscape:version="0.92.2 (5c3e80d, 2017-08-06)">
  <metadata
     id="metadata3753">
    <rdf:RDF>
      <cc:Work
         rdf:about="">
        <dc:format>image/svg+xml</dc:format>
        <dc:type
           rdf:resource="http://purl.org/dc/dcmitype/StillImage" />
      </cc:Work>
    </rdf:RDF>
  </metadata>
  <sodipodi:namedview
     pagecolor="#ffffff"
     bordercolor="#666666"
     borderopacity="1"
     objecttolerance="10"
     gridtolerance="10"
     guidetolerance="10"
     inkscape:pageopacity="0"
     inkscape:pageshadow="2"
     inkscape:window-width="1366"
     inkscape:window-height="705"
     id="namedview3751"
     showgrid="false"
     inkscape:zoom="5.300013"
     inkscape:cx="100.03089"
     inkscape:cy="20.967435"
     inkscape:window-x="-8"
     inkscape:window-y="-8"
     inkscape:window-maximized="1"
     inkscape:current-layer="Camada_1" />
  <defs
     id="defs3729">
    <style
       id="style3727">.cls-1,.cls-4,.cls-6,.cls-8{fill:#13623d;}.cls-1,.cls-2,.cls-5{stroke:#fff200;}.cls-1,.cls-5,.cls-6{stroke-width:0.71px;}.cls-2,.cls-5,.cls-7{fill:#fff200;}.cls-2,.cls-3,.cls-4{stroke-width:0.22px;}.cls-3{fill:#a6ce38;stroke:#a6ce38;}.cls-4,.cls-6{stroke:#12623c;}</style>
  </defs>
  <title
     id="title3731">Sem título-1</title>
  <g
     id="bolinha">
    <path
       id="path6"
       class="cls-1"
       d="M 16.27,0.49 C 2.61,1.7 -3.43,10.57 2.82,20.23 9.07,29.89 25.31,36.78 38.96,35.57 52.61,34.36 58.66,25.49 52.41,15.83 46.16,6.17 29.93,-0.72 16.27,0.49 Z"
       inkscape:connector-curvature="0"
       style="fill:#13623d;stroke:#fff200;stroke-width:0.70999998px" />
    <path
       id="path8"
       class="cls-2"
       d="m 38.03,2.63 c 11.51,1 16.6,8.49 11.33,16.64 -5.27,8.15 -19,14 -30.46,12.93 C 7.44,31.13 2.3,23.71 7.57,15.56 12.84,7.41 26.52,1.61 38.03,2.63 Z"
       inkscape:connector-curvature="0"
       style="fill:#fff200;stroke:#fff200;stroke-width:0.22px" />
    <path
       id="path10"
       class="cls-3"
       d="m 36.41,1.66 c 11.51,1 16.6,8.49 11.33,16.64 -5.27,8.15 -19,14 -30.46,12.93 C 5.82,30.16 0.68,22.74 5.95,14.59 11.22,6.44 24.9,0.64 36.41,1.66 Z"
       inkscape:connector-curvature="0"
       style="fill:#a6ce38;stroke:#a6ce38;stroke-width:0.22px" />
    <path
       id="path12"
       class="cls-2"
       d="m 35.6,7.59 a 28.17,28.17 0 0 1 6,0.88 q 2.57,0.71 2.09,2 a 0.45,0.45 0 0 1 -0.22,0.26 1.39,1.39 0 0 1 -0.45,0.12 l -0.62,0.08 a 2.55,2.55 0 0 1 -1.32,-0.29 2.11,2.11 0 0 1 -0.52,-0.81 2.53,2.53 0 0 1 0.16,-0.33 2.14,2.14 0 0 0 0.19,-0.39 0.52,0.52 0 0 0 0,-0.21 0.6,0.6 0 0 1 0,-0.18 C 40.79,8.53 40.41,8.37 39.78,8.25 39.15,8.13 38.34,8 37.36,7.88 36.04,7.76 34.71,7.69 33.36,7.69 a 34,34 0 0 0 -3.75,0.2 13,13 0 0 0 -2.8,0.57 16,16 0 0 0 -4.27,2.14 7.65,7.65 0 0 0 -2.33,2.55 4,4 0 0 0 -0.26,0.59 2.26,2.26 0 0 0 0.91,2.92 q 1.58,1.07 5.91,1.35 l 2.19,0.11 a 43.34,43.34 0 0 0 5.24,-0.37 36.91,36.91 0 0 0 4.84,-0.94 l 1.85,-0.46 0.38,0.15 -0.81,0.52 c -0.33,0.21 -0.61,0.39 -0.82,0.54 a 5.07,5.07 0 0 0 -0.61,0.5 13,13 0 0 0 -2,2.56 c -0.74,1.16 -1.29,2 -1.62,2.42 a 8,8 0 0 1 -1.9,1.62 13.43,13.43 0 0 1 -3.78,1.64 30.8,30.8 0 0 1 -4.74,0.89 47.56,47.56 0 0 1 -5.51,0.32 35.23,35.23 0 0 1 -5.38,-0.37 10.11,10.11 0 0 1 -3.69,-1.15 1.52,1.52 0 0 1 -0.85,-1.93 3.08,3.08 0 0 1 0.58,-0.9 c 0.77,-0.83 2.2,-1.43 4.32,-1.81 a 41.42,41.42 0 0 1 7.12,-0.56 20.18,20.18 0 0 1 7.37,1.25 l -0.31,0.15 -1.5,-0.49 a 20.41,20.41 0 0 0 -5.73,-0.68 24.45,24.45 0 0 0 -5.78,0.64 Q 13,22.3 12.32,23.42 a 3.72,3.72 0 0 0 -0.28,0.54 q -0.53,1.47 1.43,2.41 a 15.8,15.8 0 0 0 6.34,0.94 h 0.65 a 32,32 0 0 0 5,-0.45 16.08,16.08 0 0 0 3.6,-1 9.51,9.51 0 0 0 2.42,-1.49 8.74,8.74 0 0 0 1.62,-1.89 l 1.22,-1.68 0.41,-0.7 q 0.28,-0.47 0.55,-0.86 a 6.41,6.41 0 0 1 0.66,-0.76 8.74,8.74 0 0 1 0.94,-0.79 47.21,47.21 0 0 1 -9.12,0.84 Q 26.4,18.46 25.68,18.46 A 24.32,24.32 0 0 1 21,17.93 a 10.14,10.14 0 0 1 -3.31,-1.27 2.19,2.19 0 0 1 -0.78,-2.69 6.74,6.74 0 0 1 1.52,-2.15 11.68,11.68 0 0 1 2.78,-2 16.67,16.67 0 0 1 3.86,-1.43 28.06,28.06 0 0 1 3.56,-0.64 34.16,34.16 0 0 1 3.62,-0.18 q 1.66,0 3.25,0.06 z"
       inkscape:connector-curvature="0"
       style="fill:#fff200;stroke:#fff200;stroke-width:0.22px" />
    <path
       id="path14"
       class="cls-4"
       d="m 34.98,6.79 a 28,28 0 0 1 6,0.88 q 2.55,0.71 2,2 a 0.5,0.5 0 0 1 -0.24,0.26 1.5,1.5 0 0 1 -0.46,0.12 l -0.64,0.08 A 2.49,2.49 0 0 1 40.32,9.84 1.93,1.93 0 0 1 39.85,9.03 2.72,2.72 0 0 1 40.04,8.7 a 2.32,2.32 0 0 0 0.22,-0.39 0.53,0.53 0 0 0 0,-0.21 0.61,0.61 0 0 1 0,-0.18 C 40.15,7.73 39.78,7.57 39.14,7.45 38.5,7.33 37.7,7.2 36.71,7.08 35.38,6.96 34.04,6.89 32.71,6.89 a 35.2,35.2 0 0 0 -3.81,0.2 13.8,13.8 0 0 0 -2.87,0.57 17.67,17.67 0 0 0 -4.47,2.14 8.49,8.49 0 0 0 -2.53,2.55 4.3,4.3 0 0 0 -0.3,0.59 2.15,2.15 0 0 0 0.72,2.92 q 1.52,1.07 5.9,1.35 l 2.21,0.11 a 45.09,45.09 0 0 0 5.33,-0.37 39.27,39.27 0 0 0 5,-0.94 l 1.9,-0.46 0.37,0.15 -0.86,0.52 c -0.35,0.21 -0.64,0.39 -0.87,0.54 a 5.66,5.66 0 0 0 -0.65,0.5 14.44,14.44 0 0 0 -2.22,2.56 c -0.83,1.16 -1.44,2 -1.8,2.42 a 8.9,8.9 0 0 1 -2,1.62 14.72,14.72 0 0 1 -3.93,1.64 32.71,32.71 0 0 1 -4.86,0.89 49.33,49.33 0 0 1 -5.6,0.32 35.62,35.62 0 0 1 -5.42,-0.37 9.75,9.75 0 0 1 -3.66,-1.15 1.43,1.43 0 0 1 -0.73,-1.93 3.38,3.38 0 0 1 0.65,-0.9 8.42,8.42 0 0 1 4.5,-1.81 43.16,43.16 0 0 1 7.25,-0.56 20,20 0 0 1 7.38,1.25 l -0.33,0.15 -1.49,-0.49 a 20.42,20.42 0 0 0 -5.75,-0.68 25.63,25.63 0 0 0 -5.89,0.64 q -2.7,0.64 -3.47,1.76 a 4,4 0 0 0 -0.32,0.54 q -0.64,1.47 1.29,2.41 a 15.69,15.69 0 0 0 6.36,0.94 h 0.66 a 33.38,33.38 0 0 0 5.13,-0.45 17.35,17.35 0 0 0 3.72,-1 10.55,10.55 0 0 0 2.56,-1.49 9.7,9.7 0 0 0 1.77,-1.89 l 1.32,-1.69 0.46,-0.7 q 0.32,-0.47 0.62,-0.86 a 7.13,7.13 0 0 1 0.72,-0.76 9.74,9.74 0 0 1 1,-0.79 49.33,49.33 0 0 1 -9.3,0.84 q -1.37,-0.07 -2.1,-0.07 a 24.38,24.38 0 0 1 -4.7,-0.53 9.66,9.66 0 0 1 -3.26,-1.27 2.09,2.09 0 0 1 -0.61,-2.69 7.42,7.42 0 0 1 1.67,-2.17 13,13 0 0 1 3,-2 18.16,18.16 0 0 1 4,-1.43 29.75,29.75 0 0 1 3.64,-0.64 35.4,35.4 0 0 1 3.68,-0.18 q 1.68,0 3.28,0.06 z"
       inkscape:connector-curvature="0"
       style="fill:#13623d;stroke:#12623c;stroke-width:0.22px" />
    <path
       id="path16"
       class="cls-4"
       d="m 37.15,9.13 h -0.09 q -0.48,0 -0.44,-0.42 v 0 0 A 2.15,2.15 0 0 0 36.24,8.62 h -0.45 a 3.07,3.07 0 0 0 -0.76,0.1 2.18,2.18 0 0 0 -0.61,0.26 0.87,0.87 0 0 0 -0.34,0.34 0.51,0.51 0 0 1 -0.06,0.13 0.4,0.4 0 0 0 0.11,0.42 1,1 0 0 0 0.39,0.14 4,4 0 0 0 0.58,0 h 0.5 v 0 h -0.58 a 3.6,3.6 0 0 1 -0.74,-0.1 3,3 0 0 0 -0.76,0.25 1.6,1.6 0 0 0 -0.48,0.36 1.24,1.24 0 0 0 -0.25,0.42 0.48,0.48 0 0 0 0.05,0.42 0.91,0.91 0 0 0 0.5,0.31 3.94,3.94 0 0 0 1,0.14 5.12,5.12 0 0 0 1.11,-0.12 3.26,3.26 0 0 0 0.89,-0.32 1.09,1.09 0 0 0 0.48,-0.45 h 0.09 a 1.31,1.31 0 0 1 -0.56,0.52 3.47,3.47 0 0 1 -0.94,0.33 6.2,6.2 0 0 1 -1.14,0.12 h -0.18 a 5.75,5.75 0 0 1 -0.85,-0.06 2.77,2.77 0 0 1 -0.67,-0.17 0.75,0.75 0 0 1 -0.37,-0.28 0.63,0.63 0 0 1 0,-0.45 1.19,1.19 0 0 1 0.29,-0.42 1.89,1.89 0 0 1 0.54,-0.35 2.86,2.86 0 0 1 0.77,-0.22 l 0.37,-0.06 q -0.65,-0.2 -0.53,-0.6 a 0.78,0.78 0 0 1 0.42,-0.41 3.1,3.1 0 0 1 0.83,-0.28 5.06,5.06 0 0 1 1,-0.1 4.47,4.47 0 0 1 0.72,0.06 1.65,1.65 0 0 1 0.56,0.18 c 0.14,0.08 0.19,0.18 0.15,0.29 a 0.18,0.18 0 0 1 -0.11,0.11 z"
       inkscape:connector-curvature="0"
       style="fill:#13623d;stroke:#12623c;stroke-width:0.22px" />
    <path
       id="path18"
       class="cls-4"
       d="m 28.21,12.1 h -0.14 q -0.72,0 -0.65,-0.62 v -0.07 l 0.06,-0.07 a 3.18,3.18 0 0 0 -0.57,-0.13 5.5,5.5 0 0 0 -0.67,0 4.52,4.52 0 0 0 -1.12,0.15 3.23,3.23 0 0 0 -0.9,0.38 1.29,1.29 0 0 0 -0.5,0.51 0.76,0.76 0 0 1 -0.09,0.19 0.59,0.59 0 0 0 0.16,0.63 1.45,1.45 0 0 0 0.58,0.2 5.92,5.92 0 0 0 0.86,0.05 h 0.57 v 0.07 h -0.86 a 5.31,5.31 0 0 1 -1.09,-0.14 4.39,4.39 0 0 0 -1.12,0.37 2.37,2.37 0 0 0 -0.71,0.53 1.83,1.83 0 0 0 -0.37,0.62 0.72,0.72 0 0 0 0.08,0.62 1.34,1.34 0 0 0 0.74,0.45 5.84,5.84 0 0 0 1.53,0.21 7.58,7.58 0 0 0 1.65,-0.17 4.83,4.83 0 0 0 1.31,-0.47 1.62,1.62 0 0 0 0.71,-0.66 h 0.13 a 1.94,1.94 0 0 1 -0.83,0.76 5.14,5.14 0 0 1 -1.37,0.48 9.17,9.17 0 0 1 -1.69,0.18 h -0.26 a 8.51,8.51 0 0 1 -1.26,-0.09 4.1,4.1 0 0 1 -1,-0.26 1.1,1.1 0 0 1 -0.55,-0.41 0.94,0.94 0 0 1 0,-0.67 1.77,1.77 0 0 1 0.43,-0.62 2.8,2.8 0 0 1 0.8,-0.52 4.23,4.23 0 0 1 1.14,-0.32 l 0.55,-0.08 q -1,-0.3 -0.79,-0.88 a 1.16,1.16 0 0 1 0.62,-0.6 4.59,4.59 0 0 1 1.23,-0.41 7.48,7.48 0 0 1 1.46,-0.14 6.63,6.63 0 0 1 1.06,0.09 2.45,2.45 0 0 1 0.83,0.26 c 0.2,0.12 0.28,0.26 0.22,0.43 a 0.27,0.27 0 0 1 -0.16,0.17 z"
       inkscape:connector-curvature="0"
       style="fill:#13623d;stroke:#12623c;stroke-width:0.22px" />
    <path
       id="path20"
       class="cls-4"
       d="m 29.88,12.19 a 0.52,0.52 0 0 1 0.35,-0.28 2,2 0 0 1 0.7,-0.11 1.71,1.71 0 0 1 0.64,0.09 q 0.21,0.09 0.15,0.26 a 0.64,0.64 0 0 1 -0.34,0.31 2.79,2.79 0 0 1 -0.54,0.2 l 0.58,0.42 0.18,-0.09 a 2.82,2.82 0 0 0 0.57,-0.42 l -0.15,0.44 -0.4,0.21 0.47,0.34 H 31.5 l -0.25,-0.17 -0.18,0.07 a 2,2 0 0 1 -0.4,0.1 2.9,2.9 0 0 1 -0.46,0 1.74,1.74 0 0 1 -0.74,-0.13 c -0.18,-0.08 -0.24,-0.19 -0.2,-0.33 a 0.64,0.64 0 0 1 0.35,-0.31 3,3 0 0 1 0.54,-0.19 1.15,1.15 0 0 1 -0.27,-0.23 0.23,0.23 0 0 1 0,-0.22 z m 0.45,1.19 h 0.27 l 0.26,-0.06 0.18,-0.06 -0.63,-0.43 a 1.74,1.74 0 0 0 -0.32,0.12 0.47,0.47 0 0 0 -0.26,0.23 c 0,0.07 0,0.13 0.1,0.17 a 0.94,0.94 0 0 0 0.39,0.07 z m 0.08,-1.18 a 0.13,0.13 0 0 0 0,0.13 1.07,1.07 0 0 0 0.19,0.17 2.05,2.05 0 0 0 0.34,-0.12 0.45,0.45 0 0 0 0.25,-0.22 c 0,-0.05 0,-0.09 -0.06,-0.12 a 0.69,0.69 0 0 0 -0.28,0 0.77,0.77 0 0 0 -0.32,0.06 0.26,0.26 0 0 0 -0.13,0.11 z"
       inkscape:connector-curvature="0"
       style="fill:#13623d;stroke:#12623c;stroke-width:0.22px" />
  </g>
  <g
     id="nome">
    <g
       id="g22">
      <path
         id="path24"
         class="cls-5"
         d="m 657.65,386.16 c 0.09,-0.32 0.18,-0.64 0.26,-1 0.08,-0.36 0.25,-0.86 0.41,-1.29 a 7.8,7.8 0 0 1 0.36,-0.81 39.34,39.34 0 0 1 -7.63,0.75 H 651 c -0.7,-0.05 -1.42,-0.1 -2.13,-0.1 a 20.74,20.74 0 0 1 -5.13,-0.78 11.59,11.59 0 0 1 -3.93,-1.94 5,5 0 0 1 -1.64,-4.43 v -0.06 a 9.41,9.41 0 0 1 1.21,-3.31 11.2,11.2 0 0 1 2.62,-3 12.94,12.94 0 0 1 3.91,-2.15 20.59,20.59 0 0 1 3.67,-0.93 25.75,25.75 0 0 1 3.81,-0.27 q 1.7,0 3.42,0.08 a 24.62,24.62 0 0 1 6.6,1.29 c 1.64,0.59 3.29,1.68 3.06,3.65 a 1.22,1.22 0 0 1 -0.43,0.84 1.7,1.7 0 0 1 -0.75,0.32 l -0.64,0.12 h -0.17 a 3.05,3.05 0 0 1 -1.88,-0.62 4.66,4.66 0 0 1 -0.85,-1.36 l -0.08,-0.18 v -0.19 a 4.46,4.46 0 0 1 0.12,-0.59 2.6,2.6 0 0 0 0.09,-0.44 0.31,0.31 0 0 0 0,-0.09 v -0.09 a 3.46,3.46 0 0 0 -0.76,-0.28 c -0.82,-0.22 -1.67,-0.37 -2.5,-0.5 a 32.41,32.41 0 0 0 -4.06,-0.26 24.07,24.07 0 0 0 -3.73,0.27 8.61,8.61 0 0 0 -2.56,0.74 11.94,11.94 0 0 0 -3.75,2.86 8,8 0 0 0 -1.72,3.32 v 0 a 5.28,5.28 0 0 0 -0.12,0.74 3.69,3.69 0 0 0 1.3,3.52 c 1.47,1.21 4.19,1.61 6,1.77 l 2.26,0.16 a 30.82,30.82 0 0 0 5.19,-0.52 25.43,25.43 0 0 0 4.69,-1.31 l 2.1,-0.77 1.55,0.76 -0.66,0.7 c -0.24,0.26 -0.5,0.51 -0.75,0.76 -0.25,0.25 -0.48,0.48 -0.7,0.74 a 4.24,4.24 0 0 0 -0.46,0.62 15.16,15.16 0 0 0 -1.47,3.47 c -0.37,1.16 -0.74,2.34 -1.18,3.48 a 8.69,8.69 0 0 1 -1.76,2.53 10.94,10.94 0 0 1 -3.81,2.5 22.41,22.41 0 0 1 -4.87,1.3 35.45,35.45 0 0 1 -5.75,0.47 28.6,28.6 0 0 1 -5.79,-0.55 10.89,10.89 0 0 1 -4.34,-1.77 3.57,3.57 0 0 1 -1.57,-3.39 4.93,4.93 0 0 1 0.48,-1.53 c 0.88,-1.68 2.81,-2.5 4.55,-2.93 a 30.73,30.73 0 0 1 7.42,-0.81 18.24,18.24 0 0 1 8.2,1.84 l 1,0.52 -1.56,1.13 -2,-0.84 a 16.32,16.32 0 0 0 -5.81,-0.92 16.92,16.92 0 0 0 -5.61,0.87 c -1,0.34 -2.29,1 -2.61,2 a 4.58,4.58 0 0 0 -0.15,0.65 2.76,2.76 0 0 0 1.65,2.73 c 1.75,1 4.4,1.23 6.39,1.23 h 0.66 a 22.3,22.3 0 0 0 4.95,-0.62 10.85,10.85 0 0 0 3.29,-1.39 7.33,7.33 0 0 0 2,-1.92 9.43,9.43 0 0 0 1.19,-2.5 v 0 l 0.9,-2.38 z M 675.9,380 c -1,1 -2.25,4 -2.56,4.77 l -1.89,5 h -5.59 l 3.41,-9.56 a 2.12,2.12 0 0 1 0.06,-0.23 l -0.2,0.13 a 2.63,2.63 0 0 0 -0.6,0.59 v 0 l -1.25,1.59 -1.77,-0.55 1.77,-2.31 a 5.47,5.47 0 0 1 1.46,-1.23 3.91,3.91 0 0 1 2,-0.63 2.29,2.29 0 0 1 1.68,0.59 1.77,1.77 0 0 1 0.51,1.49 4.79,4.79 0 0 1 -0.16,0.72 3.29,3.29 0 0 0 -0.11,0.47 v 0.07 l -0.84,2.49 c 0.34,-0.81 0.7,-1.63 1.08,-2.41 a 7.62,7.62 0 0 1 1.78,-2.32 4.42,4.42 0 0 1 3.05,-1.12 3.5,3.5 0 0 1 1.73,0.54 1.75,1.75 0 0 1 1,1.7 1.49,1.49 0 0 1 -0.76,1.06 3.05,3.05 0 0 1 -1.14,0.43 h -0.16 a 3.63,3.63 0 0 1 -1.86,-0.7 4,4 0 0 1 -0.71,-0.61 z m 16.51,7.43 a 1.2,1.2 0 0 0 0.08,0.49 1.14,1.14 0 0 0 0.32,-0.16 3.81,3.81 0 0 0 0.59,-0.51 5.77,5.77 0 0 0 0.51,-0.58 l 0.33,-0.43 0.35,-0.44 1.7,0.8 -0.61,0.71 a 14.22,14.22 0 0 1 -2,2 4.51,4.51 0 0 1 -2.81,0.86 v 0 c -1.39,-0.09 -1.66,-1.52 -1.63,-2.65 v -0.14 l 0.05,-0.12 a 2,2 0 0 0 0.12,-0.52 v -0.06 l 0.19,-0.67 c -0.52,0.47 -1.06,0.92 -1.61,1.35 a 17.55,17.55 0 0 1 -3.21,2 7.78,7.78 0 0 1 -3.29,0.82 v 0 a 2.74,2.74 0 0 1 -2.32,-1.38 5.16,5.16 0 0 1 -0.56,-2.88 v -0.07 a 9,9 0 0 1 1,-2.88 9.74,9.74 0 0 1 2.18,-2.65 10.66,10.66 0 0 1 3.39,-2 13,13 0 0 1 4.5,-0.73 8.56,8.56 0 0 1 1.9,0.19 c 0.37,0.1 0.75,0.24 1.13,0.39 l 0.14,-0.26 H 696 l -1.38,3.22 c -0.24,0.62 -0.48,1.25 -0.72,1.87 -0.36,0.92 -0.71,1.85 -1,2.79 a 11.89,11.89 0 0 0 -0.43,1.65 z m 18.07,0.32 a 2.94,2.94 0 0 0 0.79,-0.51 l 1.7,-1.63 2.1,0.32 L 713,388 a 5.36,5.36 0 0 1 -3.9,1.83 1.94,1.94 0 0 1 -1.65,-0.62 2.39,2.39 0 0 1 -0.37,-1.37 v -0.14 l 0.05,-0.13 a 1.59,1.59 0 0 0 0.1,-0.42 V 387 l 2,-6.06 a 5.42,5.42 0 0 1 0.1,-0.54 4.26,4.26 0 0 0 0.09,-0.47 4.73,4.73 0 0 0 -1.77,1 14.66,14.66 0 0 0 -2.33,2.33 l -3.76,4.49 c -0.47,0.63 -1.48,2 -2.28,2.16 h -0.14 c -1.28,0 -1.66,-1.14 -1.65,-2.23 v -0.11 -0.1 a 5.66,5.66 0 0 0 0.14,-0.57 4.87,4.87 0 0 1 0.18,-0.68 l 1.81,-5.44 c 0,-0.17 0.07,-0.35 0.11,-0.52 0.04,-0.17 0.06,-0.25 0.08,-0.38 a 1.53,1.53 0 0 0 -0.42,0.22 1.26,1.26 0 0 0 -0.41,0.43 v 0.07 l -0.9,1.62 -1.86,-0.26 1.28,-2.24 a 4.14,4.14 0 0 1 1.61,-1.51 4.49,4.49 0 0 1 2.25,-0.71 c 1.38,0 2.26,0.76 2.09,2.19 l -0.06,0.52 -1.36,4.18 2,-2.45 a 17,17 0 0 1 3.17,-2.9 6.9,6.9 0 0 1 3.77,-1.59 2.63,2.63 0 0 1 0.9,0.15 v 0 a 1.87,1.87 0 0 1 1,2.14 l -0.07,0.61 v 0.06 q -0.35,1.2 -0.73,2.4 c -0.26,0.82 -0.54,1.64 -0.81,2.46 -0.27,0.82 -0.55,1.61 -0.83,2.41 z m 16.71,-18 a 4.66,4.66 0 0 0 -0.51,0.4 2.87,2.87 0 0 0 -0.89,1.23 v 0 l -2.29,6.2 h 4 l -0.21,1.79 h -4.49 l -5.8,16.54 -3.78,0.45 6.09,-17 h -2.78 l 0.21,-1.81 H 720 l 1.79,-4.94 a 7.23,7.23 0 0 1 1.35,-2.37 7.06,7.06 0 0 1 2.25,-1.77 6.55,6.55 0 0 1 3,-0.68 2.58,2.58 0 0 1 1.94,0.72 2,2 0 0 1 0.58,1.65 1.61,1.61 0 0 1 -1.17,1.33 l -0.14,0.05 h -0.15 a 2.53,2.53 0 0 1 -1.15,-0.33 1.9,1.9 0 0 1 -0.67,-0.75 l -0.27,-0.56 -0.09,-0.19 v 0 z m 11.2,18.2 a 1.14,1.14 0 0 0 0.32,-0.16 3.81,3.81 0 0 0 0.59,-0.51 5.78,5.78 0 0 0 0.51,-0.58 l 0.33,-0.43 0.35,-0.44 1.7,0.8 -0.61,0.71 a 14.23,14.23 0 0 1 -2,2 4.51,4.51 0 0 1 -2.81,0.86 v 0 c -1.39,-0.09 -1.66,-1.52 -1.63,-2.65 v -0.14 l 0.05,-0.12 a 2,2 0 0 0 0.12,-0.52 v -0.06 l 0.19,-0.67 c -0.52,0.47 -1.06,0.92 -1.61,1.35 a 17.55,17.55 0 0 1 -3.21,2 7.78,7.78 0 0 1 -3.29,0.82 v 0 a 2.74,2.74 0 0 1 -2.32,-1.38 5.16,5.16 0 0 1 -0.56,-2.88 v -0.07 a 9,9 0 0 1 1,-2.88 9.74,9.74 0 0 1 2.18,-2.65 10.66,10.66 0 0 1 3.39,-2 13,13 0 0 1 4.5,-0.73 8.56,8.56 0 0 1 1.9,0.19 c 0.37,0.1 0.75,0.24 1.13,0.39 l 0.14,-0.26 h 3.23 l -1.38,3.22 c -0.24,0.62 -0.48,1.25 -0.72,1.87 -0.36,0.92 -0.71,1.85 -1,2.79 a 11.89,11.89 0 0 0 -0.43,1.65 1.2,1.2 0 0 0 0.08,0.49 z m 13.22,-8.72 h -0.08 a 5,5 0 0 0 -1.73,0.33 4.2,4.2 0 0 0 -1.58,1.08 4.65,4.65 0 0 0 -1.08,2 c -0.11,0.51 -0.29,1 -0.45,1.55 a 13.82,13.82 0 0 0 -0.44,1.61 c 0,0.85 0.13,1.64 1,1.87 0.63,0.11 1.28,0.2 1.92,0.25 a 5.49,5.49 0 0 0 3.21,-0.93 l 1,-0.87 1.77,0.54 -0.72,0.82 a 7.87,7.87 0 0 1 -2.87,2 9.68,9.68 0 0 1 -3.76,0.75 c -2.23,0 -4.84,-0.58 -4.95,-3.27 v -0.11 a 3.4,3.4 0 0 0 0,-0.76 v -0.1 -0.1 A 16.71,16.71 0 0 1 744,382 a 7.75,7.75 0 0 1 2.68,-3.19 8.45,8.45 0 0 1 5,-1.37 6.48,6.48 0 0 1 2.92,0.62 2.12,2.12 0 0 1 1.38,2.13 1.12,1.12 0 0 1 -0.66,0.94 4.54,4.54 0 0 1 -0.9,0.25 h -0.09 -0.09 a 2.62,2.62 0 0 1 -2.07,-1.09 3.25,3.25 0 0 1 -0.57,-1.18 z m 13.92,0 h -0.08 a 5,5 0 0 0 -1.73,0.33 4.2,4.2 0 0 0 -1.58,1.08 4.65,4.65 0 0 0 -1.08,2 c -0.11,0.51 -0.29,1 -0.45,1.54 a 13.82,13.82 0 0 0 -0.44,1.61 c 0,0.85 0.13,1.64 1,1.87 0.63,0.11 1.28,0.2 1.92,0.25 a 5.49,5.49 0 0 0 3.21,-0.93 l 1,-0.87 1.77,0.54 -0.72,0.82 a 7.88,7.88 0 0 1 -2.87,2 9.68,9.68 0 0 1 -3.76,0.75 c -2.23,0 -4.84,-0.58 -4.95,-3.27 v -0.11 a 3.39,3.39 0 0 0 0,-0.76 v -0.1 -0.1 a 16.75,16.75 0 0 1 1.1,-3.72 7.76,7.76 0 0 1 2.68,-3.19 8.45,8.45 0 0 1 5,-1.37 6.48,6.48 0 0 1 2.92,0.62 2.12,2.12 0 0 1 1.38,2.13 1.12,1.12 0 0 1 -0.66,0.94 4.52,4.52 0 0 1 -0.9,0.25 h -0.09 -0.09 a 2.62,2.62 0 0 1 -2.07,-1.09 3.25,3.25 0 0 1 -0.57,-1.18 z m 12.69,-9.63 c 1,0 2.05,0.36 2.17,1.51 v 0.15 a 2,2 0 0 1 -0.82,1.33 2.54,2.54 0 0 1 -1.59,0.54 2.5,2.5 0 0 1 -1.57,-0.49 1.57,1.57 0 0 1 -0.64,-1.44 v -0.06 -0.05 a 1.9,1.9 0 0 1 0.93,-1.11 3,3 0 0 1 1.5,-0.38 z m -5.3,9.64 a 4.27,4.27 0 0 1 1.52,-1.24 4.4,4.4 0 0 1 2.08,-0.56 2,2 0 0 1 1.68,0.68 1.92,1.92 0 0 1 0.42,1.46 l -0.06,0.48 -2.75,7.26 a 2.34,2.34 0 0 1 -0.12,0.41 1.51,1.51 0 0 0 0.6,-0.35 l 1.75,-1.65 1.94,0.39 -2,2 a 7.59,7.59 0 0 1 -1.77,1.3 4.67,4.67 0 0 1 -2.21,0.58 2.27,2.27 0 0 1 -1.59,-0.54 2,2 0 0 1 -0.64,-1.24 v -0.28 l 0.17,-0.22 v 0 l 2.9,-7.75 v 0 l -0.17,0.11 a 3.24,3.24 0 0 0 -0.7,0.68 l -1.23,1.58 -1.79,-0.55 2,-2.54 z m 21.62,8.54 a 3,3 0 0 0 0.79,-0.51 l 1.7,-1.63 2.1,0.32 L 797,388 a 5.36,5.36 0 0 1 -3.9,1.83 1.94,1.94 0 0 1 -1.65,-0.63 2.39,2.39 0 0 1 -0.37,-1.37 v -0.14 l 0.05,-0.13 a 1.59,1.59 0 0 0 0.1,-0.42 V 387 l 2,-6.06 a 5.43,5.43 0 0 1 0.1,-0.54 4.29,4.29 0 0 0 0.09,-0.47 4.74,4.74 0 0 0 -1.77,1 14.67,14.67 0 0 0 -2.33,2.33 l -3.76,4.49 c -0.47,0.63 -1.48,2 -2.28,2.16 h -0.14 c -1.28,0 -1.66,-1.14 -1.65,-2.23 v -0.11 -0.1 a 5.57,5.57 0 0 0 0.14,-0.57 4.91,4.91 0 0 1 0.18,-0.68 l 1.81,-5.44 c 0,-0.17 0.07,-0.35 0.11,-0.52 0.04,-0.17 0.06,-0.25 0.08,-0.38 a 1.52,1.52 0 0 0 -0.42,0.22 1.26,1.26 0 0 0 -0.41,0.43 v 0.07 l -0.9,1.62 -1.86,-0.26 1.28,-2.24 a 4.14,4.14 0 0 1 1.61,-1.51 4.49,4.49 0 0 1 2.25,-0.71 c 1.38,0 2.26,0.76 2.09,2.19 l -0.06,0.52 -1.36,4.18 2,-2.45 a 17.07,17.07 0 0 1 3.17,-2.9 6.9,6.9 0 0 1 3.77,-1.59 2.63,2.63 0 0 1 0.9,0.15 v 0 a 1.87,1.87 0 0 1 1,2.14 l -0.07,0.61 v 0.06 c -0.23,0.8 -0.47,1.6 -0.73,2.4 -0.26,0.8 -0.54,1.64 -0.81,2.46 -0.27,0.82 -0.55,1.61 -0.83,2.41 z m -102.69,-8 a 4.82,4.82 0 0 0 -2.09,-0.46 5.85,5.85 0 0 0 -3.75,1.18 8.72,8.72 0 0 0 -2.4,2.87 v 0 a 9.93,9.93 0 0 0 -1.08,2.93 c 0,0.54 0,1.48 0.61,1.71 v 0 a 5.92,5.92 0 0 0 2.18,-1 21.44,21.44 0 0 0 3.22,-2.53 12.17,12.17 0 0 0 2.24,-2.69 l 1,-2.09 z m 44.87,2.09 1,-2.09 a 4.82,4.82 0 0 0 -2.09,-0.46 5.85,5.85 0 0 0 -3.75,1.18 8.72,8.72 0 0 0 -2.4,2.87 v 0 a 9.93,9.93 0 0 0 -1.08,2.93 c 0,0.54 0,1.48 0.61,1.71 v 0 a 5.91,5.91 0 0 0 2.18,-1 21.43,21.43 0 0 0 3.22,-2.53 12.16,12.16 0 0 0 2.24,-2.69 z"
         transform="translate(-571.4,-364.01)"
         inkscape:connector-curvature="0"
         style="fill:#fff200;stroke:#fff200;stroke-width:0.70999998px" />
    </g>
    <path
       id="path26"
       class="cls-6"
       d="m 85.34,3.64 a 23.83,23.83 0 0 1 6.41,1.25 q 2.81,1 2.59,2.9 A 0.52,0.52 0 0 1 94.16,8.16 1,1 0 0 1 93.72,8.34 L 93.09,8.46 A 2.37,2.37 0 0 1 91.66,8.05 3.94,3.94 0 0 1 90.95,6.9 a 3.8,3.8 0 0 1 0.1,-0.48 3.24,3.24 0 0 0 0.12,-0.55 1,1 0 0 0 0,-0.3 1.13,1.13 0 0 1 0,-0.25 2.11,2.11 0 0 0 -1.27,-0.67 q -1,-0.27 -2.59,-0.52 a 33.13,33.13 0 0 0 -4.16,-0.26 24.86,24.86 0 0 0 -3.84,0.28 9.16,9.16 0 0 0 -2.78,0.81 12.56,12.56 0 0 0 -4,3 8.62,8.62 0 0 0 -1.87,3.62 6.26,6.26 0 0 0 -0.14,0.85 4.37,4.37 0 0 0 1.56,4.15 q 1.86,1.53 6.4,1.92 l 2.29,0.16 a 31.47,31.47 0 0 0 5.34,-0.53 26.05,26.05 0 0 0 4.81,-1.34 l 1.81,-0.66 0.42,0.21 -0.73,0.74 c -0.3,0.3 -0.55,0.55 -0.73,0.77 a 4.83,4.83 0 0 0 -0.53,0.7 15.71,15.71 0 0 0 -1.55,3.64 c -0.52,1.65 -0.92,2.8 -1.16,3.44 a 7.89,7.89 0 0 1 -1.62,2.31 10.15,10.15 0 0 1 -3.56,2.33 21.75,21.75 0 0 1 -4.71,1.26 34.72,34.72 0 0 1 -5.63,0.46 27.89,27.89 0 0 1 -5.65,-0.53 10.1,10.1 0 0 1 -4.06,-1.64 2.86,2.86 0 0 1 -1.29,-2.74 4.17,4.17 0 0 1 0.41,-1.29 c 0.62,-1.18 2,-2 4.09,-2.57 a 30,30 0 0 1 7.24,-0.79 17.49,17.49 0 0 1 7.89,1.77 l -0.29,0.21 -1.65,-0.69 a 16.91,16.91 0 0 0 -6.07,-1 17.54,17.54 0 0 0 -5.84,0.91 q -2.58,0.9 -3.05,2.5 a 5.51,5.51 0 0 0 -0.18,0.77 3.41,3.41 0 0 0 2,3.42 q 2.24,1.33 6.75,1.33 h 0.67 a 23,23 0 0 0 5.11,-0.64 11.48,11.48 0 0 0 3.51,-1.49 8,8 0 0 0 2.19,-2.11 10.11,10.11 0 0 0 1.28,-2.68 l 0.91,-2.38 c 0.06,-0.21 0.15,-0.55 0.27,-1 0.12,-0.45 0.25,-0.86 0.39,-1.23 a 7.42,7.42 0 0 1 0.52,-1.08 8.51,8.51 0 0 1 0.8,-1.13 34,34 0 0 1 -9.26,1.19 Q 78.2,18.99 77.45,18.99 a 20,20 0 0 1 -5,-0.75 10.83,10.83 0 0 1 -3.69,-1.81 4.28,4.28 0 0 1 -1.38,-3.83 8.68,8.68 0 0 1 1.12,-3.06 10.47,10.47 0 0 1 2.46,-2.81 12.2,12.2 0 0 1 3.7,-2 19.82,19.82 0 0 1 3.54,-0.9 25,25 0 0 1 3.71,-0.26 q 1.71,0 3.37,0.08 z m 21,10.6 a 2.78,2.78 0 0 1 1.37,0.44 c 0.5,0.29 0.73,0.63 0.68,1 a 0.81,0.81 0 0 1 -0.43,0.54 2.34,2.34 0 0 1 -0.88,0.33 2.92,2.92 0 0 1 -1.48,-0.56 1.85,1.85 0 0 1 -0.86,-1 q -1.49,0.4 -3.49,5.47 l -1.65,4.53 h -4.09 l 3.09,-8.67 a 1.46,1.46 0 0 1 0.07,-0.26 1.42,1.42 0 0 0 0.08,-0.27 0.67,0.67 0 0 0 -0.11,-0.43 0.48,0.48 0 0 0 -0.44,-0.23 1.47,1.47 0 0 0 -0.84,0.33 3.31,3.31 0 0 0 -0.75,0.75 l -0.94,1.19 -0.34,-0.11 1.15,-1.51 a 4.76,4.76 0 0 1 1.27,-1.06 3.2,3.2 0 0 1 1.67,-0.52 1.59,1.59 0 0 1 1.18,0.38 1.06,1.06 0 0 1 0.31,0.91 4.31,4.31 0 0 1 -0.14,0.61 4.19,4.19 0 0 0 -0.13,0.59 l -2.71,8 h 1.16 l 1.56,-3.91 c 0.66,-1.6 1.18,-2.79 1.56,-3.57 a 6.9,6.9 0 0 1 1.61,-2.1 3.71,3.71 0 0 1 2.58,-0.94 z m 15.17,0.76 0.24,-0.44 h 1.73 l -1,2.24 -0.72,1.89 c -0.48,1.23 -0.81,2.17 -1,2.82 a 12.46,12.46 0 0 0 -0.47,1.82 c 0,0.84 0.28,1.26 0.83,1.26 a 1.6,1.6 0 0 0 0.67,-0.29 4.48,4.48 0 0 0 0.7,-0.59 6.44,6.44 0 0 0 0.57,-0.65 l 0.32,-0.42 0.34,0.16 a 13.56,13.56 0 0 1 -1.93,1.87 3.79,3.79 0 0 1 -2.38,0.72 c -0.68,0 -1,-0.69 -1,-1.93 a 2.63,2.63 0 0 0 0.17,-0.71 l 0.9,-3.2 -0.71,0.72 a 25.36,25.36 0 0 1 -2.75,2.46 16.79,16.79 0 0 1 -3.08,1.91 7,7 0 0 1 -3,0.75 2,2 0 0 1 -1.75,-1 4.41,4.41 0 0 1 -0.47,-2.48 8.31,8.31 0 0 1 0.92,-2.66 9,9 0 0 1 2,-2.45 9.93,9.93 0 0 1 3.17,-1.83 12.16,12.16 0 0 1 4.24,-0.69 8.24,8.24 0 0 1 1.72,0.16 c 0.32,0.09 0.86,0.29 1.65,0.6 z m -0.13,0.43 a 5.5,5.5 0 0 0 -3,-0.87 6.52,6.52 0 0 0 -4.19,1.33 9.41,9.41 0 0 0 -2.59,3.1 10.63,10.63 0 0 0 -1.17,3.2 q -0.08,2 1.05,2.45 a 0.82,0.82 0 0 0 0.31,0.06 5.63,5.63 0 0 0 2.55,-1.07 22.16,22.16 0 0 0 3.33,-2.61 12.71,12.71 0 0 0 2.38,-2.87 z m 19.38,0.81 q -0.39,1.33 -0.72,2.38 c -0.22,0.7 -0.49,1.52 -0.81,2.44 -0.32,0.92 -0.65,1.9 -1,2.92 q 0.08,0.53 0.38,0.53 a 2.71,2.71 0 0 0 1.73,-0.79 l 1.46,-1.4 0.35,0.05 -1.1,1.08 a 4.65,4.65 0 0 1 -3.39,1.61 c -0.56,0 -0.92,-0.11 -1.07,-0.33 a 1.7,1.7 0 0 1 -0.24,-1 2.29,2.29 0 0 0 0.15,-0.61 l 2,-6.05 a 4.51,4.51 0 0 1 0.1,-0.53 5.19,5.19 0 0 0 0.11,-0.55 c 0,-0.37 0,-0.61 -0.18,-0.71 a 0.9,0.9 0 0 0 -0.4,-0.08 4.22,4.22 0 0 0 -2.34,1.17 15.25,15.25 0 0 0 -2.43,2.43 l -3.77,4.5 q -1.34,1.8 -1.87,1.9 c -0.64,0 -0.95,-0.5 -0.94,-1.51 0,-0.14 0.1,-0.35 0.16,-0.64 a 4.48,4.48 0 0 1 0.16,-0.59 l 1.84,-5.52 q 0,-0.15 0.1,-0.52 a 5.53,5.53 0 0 0 0.11,-0.57 c 0.06,-0.48 -0.11,-0.72 -0.5,-0.72 a 1.82,1.82 0 0 0 -1.06,0.4 1.68,1.68 0 0 0 -0.67,0.79 l -0.63,1.13 h -0.34 l 0.77,-1.35 a 3.39,3.39 0 0 1 1.35,-1.24 3.77,3.77 0 0 1 1.89,-0.61 c 1,0 1.5,0.47 1.39,1.4 l -0.05,0.44 -2,6.11 a 1.93,1.93 0 0 1 -0.16,0.66 c 0,0.11 0,0.18 0.06,0.21 a 0.93,0.93 0 0 0 0.54,-0.48 l 3.47,-4.18 a 16.37,16.37 0 0 1 3,-2.78 6.07,6.07 0 0 1 3.35,-1.45 1.92,1.92 0 0 1 0.66,0.11 c 0.45,0.19 0.63,0.66 0.54,1.4 l -0.06,0.55 z m 10.17,-1.63 -5.88,16.64 -2.21,0.26 6,-16.88 h -3 v -0.4 h 3.12 l 2,-5.42 a 6.52,6.52 0 0 1 1.22,-2.14 6.33,6.33 0 0 1 2,-1.59 5.83,5.83 0 0 1 2.63,-0.6 1.87,1.87 0 0 1 1.43,0.5 1.33,1.33 0 0 1 0.39,1.09 0.91,0.91 0 0 1 -0.7,0.74 1.84,1.84 0 0 1 -0.83,-0.22 1.16,1.16 0 0 1 -0.41,-0.46 l -0.27,-0.56 0.06,-0.48 c 0,-0.21 -0.08,-0.31 -0.32,-0.31 a 2.44,2.44 0 0 0 -1.45,0.77 3.47,3.47 0 0 0 -1.1,1.56 l -2.63,7.13 h 4.26 v 0.37 h -4.36 z m 16.49,0.39 0.24,-0.44 h 1.73 l -1,2.24 -0.72,1.89 c -0.48,1.23 -0.81,2.17 -1,2.82 a 12.47,12.47 0 0 0 -0.47,1.82 c 0,0.84 0.28,1.26 0.83,1.26 a 1.6,1.6 0 0 0 0.67,-0.29 4.48,4.48 0 0 0 0.7,-0.59 6.45,6.45 0 0 0 0.57,-0.65 l 0.32,-0.42 0.34,0.16 a 13.56,13.56 0 0 1 -1.93,1.87 3.79,3.79 0 0 1 -2.38,0.72 c -0.68,0 -1,-0.69 -1,-1.93 a 2.63,2.63 0 0 0 0.17,-0.71 l 0.9,-3.2 -0.71,0.72 a 25.35,25.35 0 0 1 -2.75,2.46 16.79,16.79 0 0 1 -3.08,1.91 7,7 0 0 1 -3,0.75 2,2 0 0 1 -1.75,-1 4.41,4.41 0 0 1 -0.47,-2.48 8.31,8.31 0 0 1 0.92,-2.66 9,9 0 0 1 2,-2.45 9.93,9.93 0 0 1 3.17,-1.83 12.16,12.16 0 0 1 4.24,-0.69 8.24,8.24 0 0 1 1.72,0.16 c 0.32,0.09 0.86,0.29 1.65,0.6 z m -0.13,0.43 a 5.49,5.49 0 0 0 -3,-0.87 6.52,6.52 0 0 0 -4.19,1.33 9.41,9.41 0 0 0 -2.59,3.1 10.63,10.63 0 0 0 -1.17,3.2 q -0.08,2 1.05,2.45 a 0.82,0.82 0 0 0 0.31,0.06 5.63,5.63 0 0 0 2.55,-1.07 22.16,22.16 0 0 0 3.35,-2.64 12.71,12.71 0 0 0 2.38,-2.87 l 1.34,-2.72 z m 13.58,-0.93 h -0.3 a 3.25,3.25 0 0 0 -0.44,0 5.66,5.66 0 0 0 -2,0.37 4.88,4.88 0 0 0 -1.85,1.25 5.34,5.34 0 0 0 -1.25,2.29 c -0.06,0.28 -0.21,0.78 -0.44,1.5 a 14.69,14.69 0 0 0 -0.47,1.74 q -0.09,2.25 1.61,2.65 c 0.81,0.14 1.49,0.22 2.05,0.26 a 6,6 0 0 0 3.69,-1.11 l 0.69,-0.61 0.34,0.11 a 7.13,7.13 0 0 1 -2.62,1.79 9,9 0 0 1 -3.49,0.7 q -4.14,0 -4.24,-2.59 a 4,4 0 0 0 0,-0.93 16,16 0 0 1 1,-3.56 7,7 0 0 1 2.45,-2.9 7.68,7.68 0 0 1 4.59,-1.23 5.75,5.75 0 0 1 2.61,0.55 q 1.09,0.55 1,1.41 a 0.42,0.42 0 0 1 -0.24,0.37 4.07,4.07 0 0 1 -0.76,0.21 1.92,1.92 0 0 1 -1.53,-0.81 2,2 0 0 1 -0.48,-1.41 z m 13.92,0 h -0.3 a 3.24,3.24 0 0 0 -0.44,0 5.67,5.67 0 0 0 -2,0.37 4.88,4.88 0 0 0 -1.85,1.25 5.34,5.34 0 0 0 -1.25,2.29 c -0.06,0.28 -0.21,0.78 -0.44,1.5 a 14.67,14.67 0 0 0 -0.47,1.74 q -0.09,2.25 1.61,2.65 c 0.81,0.14 1.49,0.22 2.05,0.26 a 6,6 0 0 0 3.69,-1.11 l 0.69,-0.61 0.34,0.11 a 7.13,7.13 0 0 1 -2.62,1.79 9,9 0 0 1 -3.49,0.7 q -4.14,0 -4.24,-2.59 a 4.05,4.05 0 0 0 0,-0.93 16,16 0 0 1 1,-3.56 7,7 0 0 1 2.45,-2.9 7.68,7.68 0 0 1 4.59,-1.23 5.75,5.75 0 0 1 2.61,0.55 q 1.09,0.55 1,1.41 a 0.42,0.42 0 0 1 -0.24,0.37 4.07,4.07 0 0 1 -0.76,0.21 1.92,1.92 0 0 1 -1.53,-0.81 2,2 0 0 1 -0.48,-1.41 z m 12,-8.27 c 0.92,0 1.4,0.29 1.46,0.88 a 1.3,1.3 0 0 1 -0.55,0.85 1.83,1.83 0 0 1 -1.16,0.39 1.78,1.78 0 0 1 -1.13,-0.34 0.86,0.86 0 0 1 -0.37,-0.8 1.19,1.19 0 0 1 0.61,-0.69 2.24,2.24 0 0 1 1.14,-0.29 z m -6.08,11.09 1.35,-1.74 a 3.53,3.53 0 0 1 1.28,-1 3.68,3.68 0 0 1 1.74,-0.48 1.36,1.36 0 0 1 1.12,0.41 1.21,1.21 0 0 1 0.27,0.93 v 0.39 l -2.74,7.24 a 2.57,2.57 0 0 1 -0.27,0.71 c 0.08,0.42 0.24,0.64 0.47,0.64 a 2.1,2.1 0 0 0 1.45,-0.59 l 1.49,-1.4 0.3,0.06 -1.06,1.08 a 6.84,6.84 0 0 1 -1.6,1.17 4,4 0 0 1 -1.87,0.49 1.57,1.57 0 0 1 -1.1,-0.34 1.26,1.26 0 0 1 -0.42,-0.8 0.59,0.59 0 0 0 0.13,-0.26 l 2.9,-7.74 c 0,-0.07 0,-0.17 0.06,-0.3 0.06,-0.13 0,-0.24 0.06,-0.31 0,-0.28 -0.11,-0.42 -0.44,-0.42 a 1.66,1.66 0 0 0 -0.95,0.36 3.91,3.91 0 0 0 -0.84,0.82 l -0.93,1.19 -0.34,-0.11 z m 24.08,-1.08 q -0.39,1.33 -0.72,2.38 c -0.22,0.7 -0.49,1.52 -0.81,2.44 -0.32,0.92 -0.65,1.9 -1,2.92 q 0.08,0.53 0.38,0.53 a 2.71,2.71 0 0 0 1.73,-0.79 l 1.46,-1.4 0.35,0.05 -1.1,1.08 a 4.65,4.65 0 0 1 -3.39,1.61 c -0.56,0 -0.92,-0.11 -1.07,-0.33 a 1.7,1.7 0 0 1 -0.24,-1 2.3,2.3 0 0 0 0.15,-0.61 l 2,-6.05 a 4.51,4.51 0 0 1 0.1,-0.53 5.19,5.19 0 0 0 0.11,-0.55 c 0,-0.37 0,-0.61 -0.18,-0.71 a 0.9,0.9 0 0 0 -0.4,-0.08 4.22,4.22 0 0 0 -2.34,1.17 15.24,15.24 0 0 0 -2.43,2.43 l -3.77,4.5 q -1.34,1.8 -1.87,1.9 c -0.64,0 -0.95,-0.5 -0.94,-1.51 0,-0.14 0.1,-0.35 0.16,-0.64 a 4.49,4.49 0 0 1 0.16,-0.59 l 1.84,-5.52 q 0,-0.15 0.1,-0.52 a 5.5,5.5 0 0 0 0.11,-0.57 c 0.06,-0.48 -0.11,-0.72 -0.5,-0.72 a 1.82,1.82 0 0 0 -1.06,0.4 1.68,1.68 0 0 0 -0.67,0.79 l -0.63,1.13 h -0.34 l 0.77,-1.35 a 3.4,3.4 0 0 1 1.35,-1.24 3.77,3.77 0 0 1 1.89,-0.61 c 1,0 1.5,0.47 1.39,1.4 l -0.05,0.44 -2,6.11 a 1.93,1.93 0 0 1 -0.16,0.66 c 0,0.11 0,0.18 0.06,0.21 a 0.93,0.93 0 0 0 0.54,-0.48 l 3.47,-4.18 a 16.37,16.37 0 0 1 3,-2.78 6.07,6.07 0 0 1 3.35,-1.45 1.92,1.92 0 0 1 0.66,0.11 c 0.45,0.19 0.63,0.66 0.54,1.4 l -0.06,0.55 z"
       inkscape:connector-curvature="0"
       style="fill:#13623d;stroke:#12623c;stroke-width:0.70999998px" />
    <path
       id="path28"
       class="cls-7"
       d="M 226.43,28.09 H 150.5 l -3,3.53 h 75.93 z"
       inkscape:connector-curvature="0"
       style="fill:#fff200" />
    <path
       id="path30"
       class="cls-7"
       d="M 141.88,28.09 H 90.66 l -1.57,3.53 h 51.22 z"
       inkscape:connector-curvature="0"
       style="fill:#fff200" />
    <path
       id="path32"
       class="cls-8"
       d="M 140.37,27.27 H 89.15 l -1.55,3.54 h 51.22 z"
       inkscape:connector-curvature="0"
       style="fill:#13623d" />
    <path
       id="path34"
       class="cls-8"
       d="M 224.98,27.55 H 151.6 l -2.24,3.53 h 73.38 z"
       inkscape:connector-curvature="0"
       style="fill:#13623d" />
    <path
       id="path36"
       class="cls-8"
       d="m 158.32,36.46 h 3 l -0.6,2.69 a 5.42,5.42 0 0 1 -1.29,0.54 5.56,5.56 0 0 1 -1.56,0.22 3,3 0 0 1 -1.89,-0.53 2.52,2.52 0 0 1 -0.9,-2.09 4.16,4.16 0 0 1 0.39,-1.76 3.63,3.63 0 0 1 1.31,-1.57 3.57,3.57 0 0 1 2,-0.56 3.07,3.07 0 0 1 1.85,0.51 2.43,2.43 0 0 1 0.92,1.47 l -1.27,0.14 a 1.52,1.52 0 0 0 -0.54,-0.8 1.57,1.57 0 0 0 -0.94,-0.27 2.36,2.36 0 0 0 -1.22,0.32 2.19,2.19 0 0 0 -0.86,1 3.51,3.51 0 0 0 -0.31,1.49 1.59,1.59 0 0 0 0.38,1.17 1.51,1.51 0 0 0 1.12,0.38 3.64,3.64 0 0 0 0.9,-0.12 4,4 0 0 0 0.8,-0.28 l 0.2,-0.93 h -1.7 l 0.23,-1 z m 4.44,-1.19 h 1.21 l -0.2,0.88 a 1.86,1.86 0 0 1 1.47,-1 1.61,1.61 0 0 1 0.6,0.13 l -0.5,1 a 1.14,1.14 0 0 0 -0.38,-0.06 1.19,1.19 0 0 0 -0.68,0.24 1.62,1.62 0 0 0 -0.54,0.64 6.06,6.06 0 0 0 -0.39,1.27 l -0.32,1.43 h -1.3 z m 4.51,1.29 -1.27,-0.1 a 1.82,1.82 0 0 1 0.76,-1 2.66,2.66 0 0 1 1.43,-0.34 2.19,2.19 0 0 1 1.37,0.35 1.06,1.06 0 0 1 0.44,0.86 2.58,2.58 0 0 1 0,0.44 q 0,0.23 -0.27,1.22 a 5.91,5.91 0 0 0 -0.19,1.14 2.22,2.22 0 0 0 0.11,0.65 h -1.26 a 2.27,2.27 0 0 1 -0.1,-0.51 2,2 0 0 1 -0.66,0.46 1.86,1.86 0 0 1 -0.75,0.16 1.38,1.38 0 0 1 -1,-0.37 1.26,1.26 0 0 1 -0.39,-1 1.34,1.34 0 0 1 0.43,-1 2.59,2.59 0 0 1 1.53,-0.47 6.34,6.34 0 0 0 1.24,-0.18 1.46,1.46 0 0 0 0.08,-0.41 0.41,0.41 0 0 0 -0.17,-0.33 0.78,0.78 0 0 0 -0.5,-0.13 1,1 0 0 0 -0.55,0.13 0.67,0.67 0 0 0 -0.27,0.38 z m 1.24,1.14 -0.31,0.06 a 3.1,3.1 0 0 0 -1.28,0.33 0.48,0.48 0 0 0 -0.21,0.42 0.47,0.47 0 0 0 0.16,0.36 0.61,0.61 0 0 0 0.43,0.15 1.18,1.18 0 0 0 0.55,-0.13 0.94,0.94 0 0 0 0.39,-0.35 2.28,2.28 0 0 0 0.23,-0.66 v -0.16 z m 3.11,-2.43 h 1.23 l -0.13,0.59 a 3.44,3.44 0 0 1 0.86,-0.54 2.26,2.26 0 0 1 0.85,-0.16 1.32,1.32 0 0 1 0.94,0.32 1.12,1.12 0 0 1 0.34,0.85 5,5 0 0 1 -0.15,0.91 l -0.57,2.57 h -1.3 l 0.57,-2.58 a 5.3,5.3 0 0 0 0.13,-0.69 0.48,0.48 0 0 0 -0.15,-0.37 0.59,0.59 0 0 0 -0.41,-0.13 1.19,1.19 0 0 0 -0.63,0.23 1.62,1.62 0 0 0 -0.55,0.6 5.06,5.06 0 0 0 -0.33,1.08 l -0.41,1.87 h -1.31 z m 6,-1.73 h 1.3 l -0.25,1.11 h -1.3 l 0.24,-1.11 z m -0.38,1.73 h 1.36 l -1,4.55 h -1.3 z m 1.9,0.91 0.2,-0.91 h 0.63 l 0.16,-0.73 1.49,-0.85 -0.35,1.58 h 0.79 l -0.2,0.91 h -0.8 l -0.42,1.9 a 5.46,5.46 0 0 0 -0.11,0.59 0.27,0.27 0 0 0 0.09,0.22 0.55,0.55 0 0 0 0.34,0.08 h 0.43 l -0.2,0.91 a 3.57,3.57 0 0 1 -0.69,0.06 1.61,1.61 0 0 1 -1,-0.25 0.84,0.84 0 0 1 -0.31,-0.7 6,6 0 0 1 0.17,-1 l 0.4,-1.83 h -0.63 z m 3,1.75 a 2.72,2.72 0 0 1 0.75,-2 2.69,2.69 0 0 1 2,-0.75 2.35,2.35 0 0 1 1.66,0.56 1.94,1.94 0 0 1 0.6,1.49 2.71,2.71 0 0 1 -0.75,1.91 2.6,2.6 0 0 1 -2,0.81 2.69,2.69 0 0 1 -1.2,-0.26 1.74,1.74 0 0 1 -0.78,-0.73 2.07,2.07 0 0 1 -0.26,-1 z m 3.71,-0.88 a 0.93,0.93 0 0 0 -0.27,-0.7 1,1 0 0 0 -0.69,-0.26 1.21,1.21 0 0 0 -0.75,0.25 1.58,1.58 0 0 0 -0.51,0.71 2.42,2.42 0 0 0 -0.18,0.86 1.06,1.06 0 0 0 0.28,0.78 1,1 0 0 0 0.71,0.29 1.13,1.13 0 0 0 0.9,-0.43 2.24,2.24 0 0 0 0.49,-1.5 z m 1.6,1.5 1.26,-0.19 a 1.17,1.17 0 0 0 0.42,0.53 1.27,1.27 0 0 0 0.68,0.16 1.21,1.21 0 0 0 0.71,-0.19 0.37,0.37 0 0 0 0.19,-0.31 0.31,0.31 0 0 0 -0.09,-0.22 1.68,1.68 0 0 0 -0.54,-0.23 6,6 0 0 1 -1.46,-0.58 1,1 0 0 1 -0.44,-0.87 1.22,1.22 0 0 1 0.43,-0.93 3.17,3.17 0 0 1 3.17,-0.22 1.41,1.41 0 0 1 0.6,0.87 l -1.2,0.2 a 0.7,0.7 0 0 0 -0.31,-0.37 1.38,1.38 0 0 0 -0.7,-0.17 1,1 0 0 0 -0.59,0.13 0.36,0.36 0 0 0 -0.18,0.3 0.33,0.33 0 0 0 0.18,0.28 4.43,4.43 0 0 0 0.73,0.24 4,4 0 0 1 1.27,0.51 1.06,1.06 0 0 1 0.45,0.86 1.42,1.42 0 0 1 -0.58,1.12 2.48,2.48 0 0 1 -1.62,0.48 3,3 0 0 1 -1.61,-0.36 1.8,1.8 0 0 1 -0.77,-1 z m 8,1.27 1.39,-6.28 h 1.36 l -1.16,5.23 h 3.38 l -0.23,1 z m 5.95,-3.64 0.2,-0.91 h 0.63 l 0.16,-0.73 1.49,-0.85 -0.35,1.58 h 0.79 l -0.2,0.91 h -0.8 l -0.42,1.9 a 5.45,5.45 0 0 0 -0.11,0.59 0.27,0.27 0 0 0 0.09,0.22 0.55,0.55 0 0 0 0.34,0.08 h 0.43 l -0.2,0.91 a 3.57,3.57 0 0 1 -0.69,0.06 1.61,1.61 0 0 1 -1,-0.25 0.84,0.84 0 0 1 -0.31,-0.7 6,6 0 0 1 0.17,-1 l 0.4,-1.83 h -0.63 z m 7.21,3.64 h -1.23 l 0.11,-0.49 a 2.39,2.39 0 0 1 -0.7,0.46 2,2 0 0 1 -0.77,0.14 1.61,1.61 0 0 1 -1.21,-0.48 2,2 0 0 1 -0.46,-1.42 3.24,3.24 0 0 1 0.65,-2 2,2 0 0 1 1.73,-0.88 1.63,1.63 0 0 1 1.45,0.73 l 0.52,-2.35 h 1.3 l -1.39,6.28 z m -3,-1.85 a 1.07,1.07 0 0 0 0.26,0.76 0.85,0.85 0 0 0 0.64,0.27 1.08,1.08 0 0 0 0.66,-0.23 1.57,1.57 0 0 0 0.49,-0.7 2.49,2.49 0 0 0 0.18,-0.9 1.12,1.12 0 0 0 -0.28,-0.8 0.86,0.86 0 0 0 -0.65,-0.3 1.08,1.08 0 0 0 -0.94,0.6 2.44,2.44 0 0 0 -0.37,1.3 z m 6.06,-1.41 -1.27,-0.1 a 1.82,1.82 0 0 1 0.76,-1 2.66,2.66 0 0 1 1.43,-0.34 2.19,2.19 0 0 1 1.37,0.35 1.06,1.06 0 0 1 0.44,0.86 2.58,2.58 0 0 1 0,0.44 q 0,0.23 -0.27,1.22 a 5.91,5.91 0 0 0 -0.19,1.14 2.22,2.22 0 0 0 0.11,0.65 h -1.26 a 2.26,2.26 0 0 1 -0.1,-0.51 2,2 0 0 1 -0.66,0.46 1.86,1.86 0 0 1 -0.75,0.16 1.38,1.38 0 0 1 -1,-0.37 1.26,1.26 0 0 1 -0.39,-1 1.34,1.34 0 0 1 0.43,-1 2.59,2.59 0 0 1 1.53,-0.47 6.34,6.34 0 0 0 1.24,-0.18 1.45,1.45 0 0 0 0.08,-0.41 0.41,0.41 0 0 0 -0.17,-0.33 0.78,0.78 0 0 0 -0.5,-0.13 1,1 0 0 0 -0.55,0.13 0.67,0.67 0 0 0 -0.27,0.38 z m 1.24,1.14 -0.31,0.06 a 3.1,3.1 0 0 0 -1.28,0.33 0.48,0.48 0 0 0 -0.21,0.42 0.47,0.47 0 0 0 0.16,0.36 0.61,0.61 0 0 0 0.43,0.15 1.18,1.18 0 0 0 0.55,-0.13 0.94,0.94 0 0 0 0.39,-0.35 2.29,2.29 0 0 0 0.23,-0.66 v -0.16 z"
       inkscape:connector-curvature="0"
       style="fill:#13623d" />
  </g>
</svg>
