<?xml version="1.0" encoding="UTF-8" standalone="no"?>
<svg
   xmlns:dc="http://purl.org/dc/elements/1.1/"
   xmlns:cc="http://creativecommons.org/ns#"
   xmlns:rdf="http://www.w3.org/1999/02/22-rdf-syntax-ns#"
   xmlns:svg="http://www.w3.org/2000/svg"
   xmlns="http://www.w3.org/2000/svg"
   xmlns:sodipodi="http://sodipodi.sourceforge.net/DTD/sodipodi-0.dtd"
   xmlns:inkscape="http://www.inkscape.org/namespaces/inkscape"
   id="Camada_1"
   data-name="Camada 1"
   viewBox="0 0 99.999998 65.321002"
   version="1.1"
   sodipodi:docname="logo-reduzido.svg"
   inkscape:version="0.92.2 (5c3e80d, 2017-08-06)"
   width="100"
   height="65.320999">
  <metadata
     id="metadata3753">
    <rdf:RDF>
      <cc:Work
         rdf:about="">
        <dc:format>image/svg+xml</dc:format>
        <dc:type
           rdf:resource="http://purl.org/dc/dcmitype/StillImage" />
        <dc:title>Sem título-1</dc:title>
      </cc:Work>
    </rdf:RDF>
  </metadata>
  <sodipodi:namedview
     pagecolor="#ffffff"
     bordercolor="#666666"
     borderopacity="1"
     objecttolerance="10"
     gridtolerance="10"
     guidetolerance="10"
     inkscape:pageopacity="0"
     inkscape:pageshadow="2"
     inkscape:window-width="1366"
     inkscape:window-height="704"
     id="namedview3751"
     showgrid="false"
     inkscape:zoom="1.8738376"
     inkscape:cx="135.38997"
     inkscape:cy="-19.062937"
     inkscape:window-x="0"
     inkscape:window-y="27"
     inkscape:window-maximized="1"
     inkscape:current-layer="Camada_1" />
  <defs
     id="defs3729">
    <style
       id="style3727">.cls-1,.cls-4,.cls-6,.cls-8{fill:#13623d;}.cls-1,.cls-2,.cls-5{stroke:#fff200;}.cls-1,.cls-5,.cls-6{stroke-width:0.71px;}.cls-2,.cls-5,.cls-7{fill:#fff200;}.cls-2,.cls-3,.cls-4{stroke-width:0.22px;}.cls-3{fill:#a6ce38;stroke:#a6ce38;}.cls-4,.cls-6{stroke:#12623c;}</style>
  </defs>
  <title
     id="title3731">Sem título-1</title>
  <g
     id="bolinha"
     transform="matrix(1.8110565,0,0,1.8110565,-0.01088268,0.00694083)">
    <path
       id="path6"
       class="cls-1"
       d="M 16.27,0.49 C 2.61,1.7 -3.43,10.57 2.82,20.23 9.07,29.89 25.31,36.78 38.96,35.57 52.61,34.36 58.66,25.49 52.41,15.83 46.16,6.17 29.93,-0.72 16.27,0.49 Z"
       inkscape:connector-curvature="0"
       style="fill:#13623d;stroke:#fff200;stroke-width:0.70999998px" />
    <path
       id="path8"
       class="cls-2"
       d="m 38.03,2.63 c 11.51,1 16.6,8.49 11.33,16.64 -5.27,8.15 -19,14 -30.46,12.93 C 7.44,31.13 2.3,23.71 7.57,15.56 12.84,7.41 26.52,1.61 38.03,2.63 Z"
       inkscape:connector-curvature="0"
       style="fill:#fff200;stroke:#fff200;stroke-width:0.22px" />
    <path
       id="path10"
       class="cls-3"
       d="m 36.41,1.66 c 11.51,1 16.6,8.49 11.33,16.64 -5.27,8.15 -19,14 -30.46,12.93 C 5.82,30.16 0.68,22.74 5.95,14.59 11.22,6.44 24.9,0.64 36.41,1.66 Z"
       inkscape:connector-curvature="0"
       style="fill:#a6ce38;stroke:#a6ce38;stroke-width:0.22px" />
    <path
       id="path12"
       class="cls-2"
       d="m 35.6,7.59 a 28.17,28.17 0 0 1 6,0.88 q 2.57,0.71 2.09,2 a 0.45,0.45 0 0 1 -0.22,0.26 1.39,1.39 0 0 1 -0.45,0.12 l -0.62,0.08 a 2.55,2.55 0 0 1 -1.32,-0.29 2.11,2.11 0 0 1 -0.52,-0.81 2.53,2.53 0 0 1 0.16,-0.33 2.14,2.14 0 0 0 0.19,-0.39 0.52,0.52 0 0 0 0,-0.21 0.6,0.6 0 0 1 0,-0.18 C 40.79,8.53 40.41,8.37 39.78,8.25 39.15,8.13 38.34,8 37.36,7.88 36.04,7.76 34.71,7.69 33.36,7.69 a 34,34 0 0 0 -3.75,0.2 13,13 0 0 0 -2.8,0.57 16,16 0 0 0 -4.27,2.14 7.65,7.65 0 0 0 -2.33,2.55 4,4 0 0 0 -0.26,0.59 2.26,2.26 0 0 0 0.91,2.92 q 1.58,1.07 5.91,1.35 l 2.19,0.11 a 43.34,43.34 0 0 0 5.24,-0.37 36.91,36.91 0 0 0 4.84,-0.94 l 1.85,-0.46 0.38,0.15 -0.81,0.52 c -0.33,0.21 -0.61,0.39 -0.82,0.54 a 5.07,5.07 0 0 0 -0.61,0.5 13,13 0 0 0 -2,2.56 c -0.74,1.16 -1.29,2 -1.62,2.42 a 8,8 0 0 1 -1.9,1.62 13.43,13.43 0 0 1 -3.78,1.64 30.8,30.8 0 0 1 -4.74,0.89 47.56,47.56 0 0 1 -5.51,0.32 35.23,35.23 0 0 1 -5.38,-0.37 10.11,10.11 0 0 1 -3.69,-1.15 1.52,1.52 0 0 1 -0.85,-1.93 3.08,3.08 0 0 1 0.58,-0.9 c 0.77,-0.83 2.2,-1.43 4.32,-1.81 a 41.42,41.42 0 0 1 7.12,-0.56 20.18,20.18 0 0 1 7.37,1.25 l -0.31,0.15 -1.5,-0.49 a 20.41,20.41 0 0 0 -5.73,-0.68 24.45,24.45 0 0 0 -5.78,0.64 Q 13,22.3 12.32,23.42 a 3.72,3.72 0 0 0 -0.28,0.54 q -0.53,1.47 1.43,2.41 a 15.8,15.8 0 0 0 6.34,0.94 h 0.65 a 32,32 0 0 0 5,-0.45 16.08,16.08 0 0 0 3.6,-1 9.51,9.51 0 0 0 2.42,-1.49 8.74,8.74 0 0 0 1.62,-1.89 l 1.22,-1.68 0.41,-0.7 q 0.28,-0.47 0.55,-0.86 a 6.41,6.41 0 0 1 0.66,-0.76 8.74,8.74 0 0 1 0.94,-0.79 47.21,47.21 0 0 1 -9.12,0.84 Q 26.4,18.46 25.68,18.46 A 24.32,24.32 0 0 1 21,17.93 a 10.14,10.14 0 0 1 -3.31,-1.27 2.19,2.19 0 0 1 -0.78,-2.69 6.74,6.74 0 0 1 1.52,-2.15 11.68,11.68 0 0 1 2.78,-2 16.67,16.67 0 0 1 3.86,-1.43 28.06,28.06 0 0 1 3.56,-0.64 34.16,34.16 0 0 1 3.62,-0.18 q 1.66,0 3.25,0.06 z"
       inkscape:connector-curvature="0"
       style="fill:#fff200;stroke:#fff200;stroke-width:0.22px" />
    <path
       id="path14"
       class="cls-4"
       d="m 34.98,6.79 a 28,28 0 0 1 6,0.88 q 2.55,0.71 2,2 a 0.5,0.5 0 0 1 -0.24,0.26 1.5,1.5 0 0 1 -0.46,0.12 l -0.64,0.08 A 2.49,2.49 0 0 1 40.32,9.84 1.93,1.93 0 0 1 39.85,9.03 2.72,2.72 0 0 1 40.04,8.7 a 2.32,2.32 0 0 0 0.22,-0.39 0.53,0.53 0 0 0 0,-0.21 0.61,0.61 0 0 1 0,-0.18 C 40.15,7.73 39.78,7.57 39.14,7.45 38.5,7.33 37.7,7.2 36.71,7.08 35.38,6.96 34.04,6.89 32.71,6.89 a 35.2,35.2 0 0 0 -3.81,0.2 13.8,13.8 0 0 0 -2.87,0.57 17.67,17.67 0 0 0 -4.47,2.14 8.49,8.49 0 0 0 -2.53,2.55 4.3,4.3 0 0 0 -0.3,0.59 2.15,2.15 0 0 0 0.72,2.92 q 1.52,1.07 5.9,1.35 l 2.21,0.11 a 45.09,45.09 0 0 0 5.33,-0.37 39.27,39.27 0 0 0 5,-0.94 l 1.9,-0.46 0.37,0.15 -0.86,0.52 c -0.35,0.21 -0.64,0.39 -0.87,0.54 a 5.66,5.66 0 0 0 -0.65,0.5 14.44,14.44 0 0 0 -2.22,2.56 c -0.83,1.16 -1.44,2 -1.8,2.42 a 8.9,8.9 0 0 1 -2,1.62 14.72,14.72 0 0 1 -3.93,1.64 32.71,32.71 0 0 1 -4.86,0.89 49.33,49.33 0 0 1 -5.6,0.32 35.62,35.62 0 0 1 -5.42,-0.37 9.75,9.75 0 0 1 -3.66,-1.15 1.43,1.43 0 0 1 -0.73,-1.93 3.38,3.38 0 0 1 0.65,-0.9 8.42,8.42 0 0 1 4.5,-1.81 43.16,43.16 0 0 1 7.25,-0.56 20,20 0 0 1 7.38,1.25 l -0.33,0.15 -1.49,-0.49 a 20.42,20.42 0 0 0 -5.75,-0.68 25.63,25.63 0 0 0 -5.89,0.64 q -2.7,0.64 -3.47,1.76 a 4,4 0 0 0 -0.32,0.54 q -0.64,1.47 1.29,2.41 a 15.69,15.69 0 0 0 6.36,0.94 h 0.66 a 33.38,33.38 0 0 0 5.13,-0.45 17.35,17.35 0 0 0 3.72,-1 10.55,10.55 0 0 0 2.56,-1.49 9.7,9.7 0 0 0 1.77,-1.89 l 1.32,-1.69 0.46,-0.7 q 0.32,-0.47 0.62,-0.86 a 7.13,7.13 0 0 1 0.72,-0.76 9.74,9.74 0 0 1 1,-0.79 49.33,49.33 0 0 1 -9.3,0.84 q -1.37,-0.07 -2.1,-0.07 a 24.38,24.38 0 0 1 -4.7,-0.53 9.66,9.66 0 0 1 -3.26,-1.27 2.09,2.09 0 0 1 -0.61,-2.69 7.42,7.42 0 0 1 1.67,-2.17 13,13 0 0 1 3,-2 18.16,18.16 0 0 1 4,-1.43 29.75,29.75 0 0 1 3.64,-0.64 35.4,35.4 0 0 1 3.68,-0.18 q 1.68,0 3.28,0.06 z"
       inkscape:connector-curvature="0"
       style="fill:#13623d;stroke:#12623c;stroke-width:0.22px" />
    <path
       id="path16"
       class="cls-4"
       d="m 37.15,9.13 h -0.09 q -0.48,0 -0.44,-0.42 v 0 0 A 2.15,2.15 0 0 0 36.24,8.62 h -0.45 a 3.07,3.07 0 0 0 -0.76,0.1 2.18,2.18 0 0 0 -0.61,0.26 0.87,0.87 0 0 0 -0.34,0.34 0.51,0.51 0 0 1 -0.06,0.13 0.4,0.4 0 0 0 0.11,0.42 1,1 0 0 0 0.39,0.14 4,4 0 0 0 0.58,0 h 0.5 v 0 h -0.58 a 3.6,3.6 0 0 1 -0.74,-0.1 3,3 0 0 0 -0.76,0.25 1.6,1.6 0 0 0 -0.48,0.36 1.24,1.24 0 0 0 -0.25,0.42 0.48,0.48 0 0 0 0.05,0.42 0.91,0.91 0 0 0 0.5,0.31 3.94,3.94 0 0 0 1,0.14 5.12,5.12 0 0 0 1.11,-0.12 3.26,3.26 0 0 0 0.89,-0.32 1.09,1.09 0 0 0 0.48,-0.45 h 0.09 a 1.31,1.31 0 0 1 -0.56,0.52 3.47,3.47 0 0 1 -0.94,0.33 6.2,6.2 0 0 1 -1.14,0.12 h -0.18 a 5.75,5.75 0 0 1 -0.85,-0.06 2.77,2.77 0 0 1 -0.67,-0.17 0.75,0.75 0 0 1 -0.37,-0.28 0.63,0.63 0 0 1 0,-0.45 1.19,1.19 0 0 1 0.29,-0.42 1.89,1.89 0 0 1 0.54,-0.35 2.86,2.86 0 0 1 0.77,-0.22 l 0.37,-0.06 q -0.65,-0.2 -0.53,-0.6 a 0.78,0.78 0 0 1 0.42,-0.41 3.1,3.1 0 0 1 0.83,-0.28 5.06,5.06 0 0 1 1,-0.1 4.47,4.47 0 0 1 0.72,0.06 1.65,1.65 0 0 1 0.56,0.18 c 0.14,0.08 0.19,0.18 0.15,0.29 a 0.18,0.18 0 0 1 -0.11,0.11 z"
       inkscape:connector-curvature="0"
       style="fill:#13623d;stroke:#12623c;stroke-width:0.22px" />
    <path
       id="path18"
       class="cls-4"
       d="m 28.21,12.1 h -0.14 q -0.72,0 -0.65,-0.62 v -0.07 l 0.06,-0.07 a 3.18,3.18 0 0 0 -0.57,-0.13 5.5,5.5 0 0 0 -0.67,0 4.52,4.52 0 0 0 -1.12,0.15 3.23,3.23 0 0 0 -0.9,0.38 1.29,1.29 0 0 0 -0.5,0.51 0.76,0.76 0 0 1 -0.09,0.19 0.59,0.59 0 0 0 0.16,0.63 1.45,1.45 0 0 0 0.58,0.2 5.92,5.92 0 0 0 0.86,0.05 h 0.57 v 0.07 h -0.86 a 5.31,5.31 0 0 1 -1.09,-0.14 4.39,4.39 0 0 0 -1.12,0.37 2.37,2.37 0 0 0 -0.71,0.53 1.83,1.83 0 0 0 -0.37,0.62 0.72,0.72 0 0 0 0.08,0.62 1.34,1.34 0 0 0 0.74,0.45 5.84,5.84 0 0 0 1.53,0.21 7.58,7.58 0 0 0 1.65,-0.17 4.83,4.83 0 0 0 1.31,-0.47 1.62,1.62 0 0 0 0.71,-0.66 h 0.13 a 1.94,1.94 0 0 1 -0.83,0.76 5.14,5.14 0 0 1 -1.37,0.48 9.17,9.17 0 0 1 -1.69,0.18 h -0.26 a 8.51,8.51 0 0 1 -1.26,-0.09 4.1,4.1 0 0 1 -1,-0.26 1.1,1.1 0 0 1 -0.55,-0.41 0.94,0.94 0 0 1 0,-0.67 1.77,1.77 0 0 1 0.43,-0.62 2.8,2.8 0 0 1 0.8,-0.52 4.23,4.23 0 0 1 1.14,-0.32 l 0.55,-0.08 q -1,-0.3 -0.79,-0.88 a 1.16,1.16 0 0 1 0.62,-0.6 4.59,4.59 0 0 1 1.23,-0.41 7.48,7.48 0 0 1 1.46,-0.14 6.63,6.63 0 0 1 1.06,0.09 2.45,2.45 0 0 1 0.83,0.26 c 0.2,0.12 0.28,0.26 0.22,0.43 a 0.27,0.27 0 0 1 -0.16,0.17 z"
       inkscape:connector-curvature="0"
       style="fill:#13623d;stroke:#12623c;stroke-width:0.22px" />
    <path
       id="path20"
       class="cls-4"
       d="m 29.88,12.19 a 0.52,0.52 0 0 1 0.35,-0.28 2,2 0 0 1 0.7,-0.11 1.71,1.71 0 0 1 0.64,0.09 q 0.21,0.09 0.15,0.26 a 0.64,0.64 0 0 1 -0.34,0.31 2.79,2.79 0 0 1 -0.54,0.2 l 0.58,0.42 0.18,-0.09 a 2.82,2.82 0 0 0 0.57,-0.42 l -0.15,0.44 -0.4,0.21 0.47,0.34 H 31.5 l -0.25,-0.17 -0.18,0.07 a 2,2 0 0 1 -0.4,0.1 2.9,2.9 0 0 1 -0.46,0 1.74,1.74 0 0 1 -0.74,-0.13 c -0.18,-0.08 -0.24,-0.19 -0.2,-0.33 a 0.64,0.64 0 0 1 0.35,-0.31 3,3 0 0 1 0.54,-0.19 1.15,1.15 0 0 1 -0.27,-0.23 0.23,0.23 0 0 1 0,-0.22 z m 0.45,1.19 h 0.27 l 0.26,-0.06 0.18,-0.06 -0.63,-0.43 a 1.74,1.74 0 0 0 -0.32,0.12 0.47,0.47 0 0 0 -0.26,0.23 c 0,0.07 0,0.13 0.1,0.17 a 0.94,0.94 0 0 0 0.39,0.07 z m 0.08,-1.18 a 0.13,0.13 0 0 0 0,0.13 1.07,1.07 0 0 0 0.19,0.17 2.05,2.05 0 0 0 0.34,-0.12 0.45,0.45 0 0 0 0.25,-0.22 c 0,-0.05 0,-0.09 -0.06,-0.12 a 0.69,0.69 0 0 0 -0.28,0 0.77,0.77 0 0 0 -0.32,0.06 0.26,0.26 0 0 0 -0.13,0.11 z"
       inkscape:connector-curvature="0"
       style="fill:#13623d;stroke:#12623c;stroke-width:0.22px" />
  </g>
</svg>
