<svg id="Camada_1" data-name="Camada 1" xmlns="http://www.w3.org/2000/svg" viewBox="0 0 42.93 44.76"><defs><style>.cls-1,.cls-4{fill:#13623d;}.cls-1,.cls-2{stroke:#fff200;}.cls-1{stroke-width:0.71px;}.cls-2{fill:#fff200;}.cls-2,.cls-3,.cls-4{stroke-width:0.22px;}.cls-3{fill:#a6ce38;stroke:#a6ce38;}.cls-4{stroke:#12623c;}</style></defs><title>pin</title><path id="path6" class="cls-1" d="M671.22,440.72c-6.47.59-9.32,4.92-6.37,9.63s10.64,8.08,17.1,7.49,9.32-4.92,6.37-9.63S677.68,440.13,671.22,440.72Z" transform="translate(-655.43 -430.65)"/><path id="path8" class="cls-2" d="M681.52,441.76c5.45.49,7.86,4.14,5.36,8.12s-9,6.83-14.42,6.31-7.86-4.14-5.36-8.12S676.07,441.26,681.52,441.76Z" transform="translate(-655.43 -430.65)"/><path id="path10" class="cls-3" d="M680.75,441.29c5.45.49,7.86,4.14,5.36,8.12s-9,6.83-14.42,6.31-7.86-4.14-5.36-8.12S675.3,440.79,680.75,441.29Z" transform="translate(-655.43 -430.65)"/><path id="path12" class="cls-2" d="M680.37,444.18a13,13,0,0,1,2.84.43q1.22.35,1,1a.22.22,0,0,1-.1.13.64.64,0,0,1-.21.06l-.29,0a1.18,1.18,0,0,1-.62-.14,1,1,0,0,1-.25-.4l.08-.16a1.06,1.06,0,0,0,.09-.19.26.26,0,0,0,0-.1.3.3,0,0,1,0-.09c-.06-.09-.24-.17-.53-.23s-.68-.12-1.15-.18c-.62-.06-1.25-.09-1.89-.09a15.61,15.61,0,0,0-1.77.1,6,6,0,0,0-1.33.28,7.49,7.49,0,0,0-2,1,3.69,3.69,0,0,0-1.1,1.24,2,2,0,0,0-.12.29,1.12,1.12,0,0,0,.43,1.43,6,6,0,0,0,2.8.66l1,.05a19.9,19.9,0,0,0,2.48-.18,17,17,0,0,0,2.29-.46l.88-.22.18.07-.38.25-.39.26a2.42,2.42,0,0,0-.29.24,6.32,6.32,0,0,0-.95,1.25c-.35.57-.61,1-.77,1.18a3.82,3.82,0,0,1-.9.79,6.26,6.26,0,0,1-1.79.8,14.18,14.18,0,0,1-2.24.43,21.84,21.84,0,0,1-2.61.16,16.18,16.18,0,0,1-2.55-.18,4.68,4.68,0,0,1-1.75-.56.75.75,0,0,1-.4-.94,1.51,1.51,0,0,1,.27-.44,3.62,3.62,0,0,1,2-.88,19,19,0,0,1,3.37-.27,9.29,9.29,0,0,1,3.49.61l-.15.07-.71-.24a9.38,9.38,0,0,0-2.71-.33,11.24,11.24,0,0,0-2.74.31,2.45,2.45,0,0,0-1.57.86,1.84,1.84,0,0,0-.13.26q-.25.72.68,1.18a7.27,7.27,0,0,0,3,.46h.31a14.7,14.7,0,0,0,2.37-.22,7.43,7.43,0,0,0,1.7-.49,4.48,4.48,0,0,0,1.15-.73,4.23,4.23,0,0,0,.77-.92l.58-.82.19-.34q.13-.23.26-.42a3.1,3.1,0,0,1,.31-.37,4.17,4.17,0,0,1,.44-.39,21.69,21.69,0,0,1-4.32.41l-1,0a11.18,11.18,0,0,1-2.21-.26,4.71,4.71,0,0,1-1.57-.62,1.09,1.09,0,0,1-.37-1.31,3.29,3.29,0,0,1,.72-1,5.54,5.54,0,0,1,1.32-1,7.74,7.74,0,0,1,1.83-.7,12.92,12.92,0,0,1,1.68-.31,15.68,15.68,0,0,1,1.71-.09l1.54,0Z" transform="translate(-655.43 -430.65)"/><path id="path14" class="cls-4" d="M680.07,443.79a12.88,12.88,0,0,1,2.84.43q1.21.35.95,1a.24.24,0,0,1-.11.13.69.69,0,0,1-.22.06l-.3,0a1.15,1.15,0,0,1-.62-.14,1,1,0,0,1-.22-.4l.09-.16a1.14,1.14,0,0,0,.1-.19.27.27,0,0,0,0-.1.31.31,0,0,1,0-.09c-.05-.09-.23-.17-.53-.23s-.68-.12-1.15-.18c-.63-.06-1.26-.09-1.89-.09a16.16,16.16,0,0,0-1.8.1,6.36,6.36,0,0,0-1.36.28,8.26,8.26,0,0,0-2.12,1,4.08,4.08,0,0,0-1.2,1.24,2.13,2.13,0,0,0-.14.29,1.07,1.07,0,0,0,.34,1.43,5.82,5.82,0,0,0,2.79.66l1,.05a20.71,20.71,0,0,0,2.52-.18,18.08,18.08,0,0,0,2.37-.46l.9-.22.18.07-.41.25-.41.26a2.69,2.69,0,0,0-.31.24,7,7,0,0,0-1.05,1.25c-.39.57-.68,1-.85,1.18a4.24,4.24,0,0,1-.95.79,6.85,6.85,0,0,1-1.86.8,15.06,15.06,0,0,1-2.3.43,22.65,22.65,0,0,1-2.65.16,16.36,16.36,0,0,1-2.57-.18,4.52,4.52,0,0,1-1.73-.56.71.71,0,0,1-.36-.92v0a1.65,1.65,0,0,1,.31-.44,3.92,3.92,0,0,1,2.13-.88,19.82,19.82,0,0,1,3.43-.27,9.21,9.21,0,0,1,3.49.61l-.16.07-.71-.24a9.39,9.39,0,0,0-2.72-.33,11.78,11.78,0,0,0-2.79.31,2.71,2.71,0,0,0-1.64.86,2,2,0,0,0-.15.26q-.3.72.61,1.18a7.22,7.22,0,0,0,3,.46h.31a15.33,15.33,0,0,0,2.43-.22,8,8,0,0,0,1.76-.49,5,5,0,0,0,1.21-.73,4.68,4.68,0,0,0,.84-.92l.62-.82.22-.34.29-.42a3.44,3.44,0,0,1,.34-.37,4.63,4.63,0,0,1,.47-.39,22.66,22.66,0,0,1-4.4.41l-1,0a11.2,11.2,0,0,1-2.22-.26,4.49,4.49,0,0,1-1.54-.62,1,1,0,0,1-.29-1.31,3.61,3.61,0,0,1,.79-1.06,6.14,6.14,0,0,1,1.42-1,8.43,8.43,0,0,1,1.89-.7,13.69,13.69,0,0,1,1.72-.31,16.25,16.25,0,0,1,1.74-.09l1.55,0Z" transform="translate(-655.43 -430.65)"/><path id="path16" class="cls-4" d="M681.1,444.93h0q-.23,0-.21-.2h0l-.18,0h-.21a1.41,1.41,0,0,0-.36,0,1,1,0,0,0-.29.13.42.42,0,0,0-.16.17l0,.06a.2.2,0,0,0,.05.2.46.46,0,0,0,.18.07h.24a1.66,1.66,0,0,1-.35,0,1.39,1.39,0,0,0-.36.12.76.76,0,0,0-.23.18.61.61,0,0,0-.12.2.24.24,0,0,0,0,.2.43.43,0,0,0,.24.15,1.81,1.81,0,0,0,.47.07,2.35,2.35,0,0,0,.53-.06,1.51,1.51,0,0,0,.42-.16.52.52,0,0,0,.23-.22h0a.63.63,0,0,1-.27.25,1.61,1.61,0,0,1-.44.16,2.85,2.85,0,0,1-.54.06h-.09a2.64,2.64,0,0,1-.4,0,1.28,1.28,0,0,1-.32-.08.36.36,0,0,1-.18-.14.32.32,0,0,1,0-.22.58.58,0,0,1,.14-.2.89.89,0,0,1,.26-.17,1.32,1.32,0,0,1,.36-.11l.18,0q-.31-.1-.25-.29a.37.37,0,0,1,.2-.2,1.44,1.44,0,0,1,.39-.14,2.32,2.32,0,0,1,.47,0l.34,0a.76.76,0,0,1,.27.09c.07,0,.09.09.07.14a.09.09,0,0,1-.05.05Z" transform="translate(-655.43 -430.65)"/><path id="path18" class="cls-4" d="M676.87,446.38h-.07q-.34,0-.31-.3v0l0,0-.27-.06h-.32a2.08,2.08,0,0,0-.53.07,1.5,1.5,0,0,0-.43.19.62.62,0,0,0-.24.25.38.38,0,0,1,0,.09.29.29,0,0,0,.08.31.67.67,0,0,0,.27.1,2.72,2.72,0,0,0,.41,0h.27v0h-.41a2.44,2.44,0,0,1-.52-.07,2,2,0,0,0-.53.18,1.13,1.13,0,0,0-.34.26.9.9,0,0,0-.18.3.36.36,0,0,0,0,.3.63.63,0,0,0,.35.22,2.69,2.69,0,0,0,.72.1,3.48,3.48,0,0,0,.78-.08,2.24,2.24,0,0,0,.62-.23.78.78,0,0,0,.34-.32h.06a.93.93,0,0,1-.39.37,2.38,2.38,0,0,1-.65.23,4.21,4.21,0,0,1-.8.09h-.12a3.91,3.91,0,0,1-.6,0,1.89,1.89,0,0,1-.47-.13.52.52,0,0,1-.26-.2.47.47,0,0,1,0-.33.86.86,0,0,1,.2-.3,1.32,1.32,0,0,1,.38-.25,2,2,0,0,1,.54-.16l.26,0q-.47-.15-.37-.43a.56.56,0,0,1,.29-.29,2.13,2.13,0,0,1,.58-.2,3.44,3.44,0,0,1,.69-.07,3,3,0,0,1,.5,0,1.13,1.13,0,0,1,.39.13c.09.06.13.13.1.21a.13.13,0,0,1-.08.08Z" transform="translate(-655.43 -430.65)"/><path id="path20" class="cls-4" d="M677.66,446.43a.25.25,0,0,1,.17-.14.92.92,0,0,1,.33-.05.79.79,0,0,1,.3,0q.1,0,.07.13a.31.31,0,0,1-.16.15,1.3,1.3,0,0,1-.26.1l.27.2.09,0a1.34,1.34,0,0,0,.27-.2l-.07.21-.19.1.22.17h-.28l-.12-.08-.09,0-.19,0h-.22a.8.8,0,0,1-.35-.06c-.09,0-.11-.09-.09-.16a.31.31,0,0,1,.17-.15l.26-.09a.55.55,0,0,1-.13-.11.12.12,0,0,1,0-.11Zm.21.58H678l.12,0,.09,0-.3-.21-.15.06a.22.22,0,0,0-.12.11s0,.06,0,.08a.43.43,0,0,0,.18,0Zm0-.58a.07.07,0,0,0,0,.06l.09.08.16-.06a.22.22,0,0,0,.12-.11s0,0,0-.06h-.13a.35.35,0,0,0-.15,0,.12.12,0,0,0-.06.05Z" transform="translate(-655.43 -430.65)"/><path class="cls-1" d="M676.89,431c-11.66,0-21.11,8.17-21.11,18.24,0,14.1,21.11,25.76,21.11,25.76S698,463,698,449.24C698,439.17,688.55,431,676.89,431Zm0,31.18c-8.28,0-15-5.8-15-13s6.72-13,15-13,15,5.8,15,13S685.18,462.18,676.89,462.18Z" transform="translate(-655.43 -430.65)"/></svg>